<mxfile host="65bd71144e">
    <diagram id="HIP3nbAZw_EuaXWnEj3U" name="Page-1">
        <mxGraphModel dx="1086" dy="658" grid="1" gridSize="10" guides="1" tooltips="1" connect="1" arrows="1" fold="1" page="1" pageScale="1" pageWidth="850" pageHeight="1100" math="0" shadow="0">
            <root>
                <mxCell id="0"/>
                <mxCell id="1" parent="0"/>
                <mxCell id="8" value="http://ics2o.mths.ca" style="swimlane;whiteSpace=wrap;html=1;" vertex="1" parent="1">
                    <mxGeometry y="110" width="799" height="540" as="geometry"/>
                </mxCell>
                <mxCell id="9" value="&lt;h1 style=&quot;margin-top: 0px; line-height: 270%;&quot;&gt;&lt;font style=&quot;font-size: 30px;&quot;&gt;sum of natural numbers, with JS&lt;/font&gt;&lt;/h1&gt;" style="text;html=1;whiteSpace=wrap;overflow=hidden;rounded=0;" vertex="1" parent="8">
                    <mxGeometry x="20" y="20" width="550" height="70" as="geometry"/>
                </mxCell>
                <mxCell id="10" value="&lt;font style=&quot;font-size: 26px;&quot;&gt;Enter number for n value:&lt;/font&gt;" style="text;html=1;align=left;verticalAlign=middle;whiteSpace=wrap;rounded=0;" vertex="1" parent="8">
                    <mxGeometry x="20" y="90" width="350" height="30" as="geometry"/>
                </mxCell>
                <mxCell id="11" value="Number..." style="rounded=1;whiteSpace=wrap;html=1;align=left;fillColor=light-dark(#FFFFFF,#000000);strokeColor=light-dark(#000000,#FFFFFF);" vertex="1" parent="8">
                    <mxGeometry x="20" y="140" width="280" height="30" as="geometry"/>
                </mxCell>
                <mxCell id="12" value="&lt;font style=&quot;font-size: 17px;&quot;&gt;Calculate&lt;/font&gt;" style="rounded=1;whiteSpace=wrap;html=1;align=center;fillColor=light-dark(#FFFFFF,#000000);strokeColor=light-dark(#000000,#FFFFFF);" vertex="1" parent="8">
                    <mxGeometry x="20" y="194.16" width="200" height="30" as="geometry"/>
                </mxCell>
                <mxCell id="13" value="&lt;font style=&quot;font-size: 26px;&quot;&gt;the number is: 80&lt;/font&gt;" style="text;html=1;align=left;verticalAlign=middle;whiteSpace=wrap;rounded=0;" vertex="1" parent="8">
                    <mxGeometry x="20" y="255" width="440" height="30" as="geometry"/>
                </mxCell>
                <mxCell id="20" value="" style="shape=image;verticalLabelPosition=bottom;labelBackgroundColor=default;verticalAlign=top;aspect=fixed;imageAspect=0;image=data:image/png,iVBORw0KGgoAAAANSUhEUgAAASwAAACoCAMAAABt9SM9AAABpFBMVEX///8AAAD///7//f/9//////z/+/////sYGBj//f78/vz//fwt/gDr+uI1+wDq6upycnLC+7M9+gD0//D6//rm+d3E+bXz8/OkpKSHh4f4/fO++63/+P9L+hlCQkJB+ACc+YRbaX//+fPTwK+v952m+pLV/Mlq80HQ0NAjIyO0+KWK+3hzi6mL9G/Hx8dTU1Pe3t44ODhoaGhFMhV9fX2Pj4+1tbVYWFguLi4UFBRISEitra17912H+mrL+bxb9zjh/doAABK8vLyW93fa+dGb+4xy9lEAACISAADQ3Ohwf47R/Mbp+dRe8C9U8hys/Jms+Yjc+uGd9nZw8EC/rZ+PmKN9dWs/SVfl8vqXkYM3UmlZSjmhtcgzOlBLPSiDb2Hi1cmzxtUeMEKTscJXZHU5IAubgnJiSypUQD4AGi/gzrdIPDFrX1hvYEyZfHgYMkggEwo6MBs/JwA4JhzGuZ306ddPYHogPlW9tqlofIgACy4XIy60ztouSVPGu7SLm7MUHzzErZRqZlYeAACmmoNAVnI/RGcmAAAbGhCDj5pXU0dSco5gyzUKAAAgAElEQVR4nO19C2Mbx3Xu7Dx2NLODpbi7IKglITAMCUhUKFGs3gIBWAQRKxRBq7Zj2nFiOXGcuLXbpIlSt3acNnV7b5o/fb8zC4CQxIdeMeVrHFsksNydxzfnfOfM7M4exiYykYm8WlJ5WQVNvayCXjm5cpEVOFXOr72cEm8H1+jXuUv/34F2JwgqbOoUujcb3GIRHcG/NfoQra1dvAMYK+cq+HfnzkDzZovflQEUdHhtXCmngiDAAExdDi7T18EITK2du3iHSr3oz127ePFv37eXLuvBefpxqsJuBJdnr1Jf19hasHbl7I2A5PLpm0Fw6jJ9vEnwVC4Hl/yF1wv9OR3cqLArwZV9rTyNU2fZGi4LCEcq+tbZ876w67g+uMPWrp7ClzMn0t8XEajBVXYxgFLhx511AHUOXToTzJ7xSJ1Zx89T188Gwek7dCb6HniFOYffV3D5Vfxe9/hcHZRIZwRX6Hhwo0Buinmobl29BKCmgrOz9OXSpfWT7PdzCSBaY6eo49eDgF3Gl4sAYz24zc6tBTcrAOXU7XOsMnv58uXgFKlccPYsGdmt4CZp2Ong8jmcduY8UBugdSUYCJ2wRr+uwYiv0dnrpFXB5UuA8dtohOwqhp+6d+cc6UZwfm3qdHCakTaAw057MAnJynmvO5Ub9Bmqh7OngvMX2dkAWne+MhtQSZ7EKkFwiYz2/LVLMLQrpJHrU4QTjPZGcA6gXjq3futmcO6ke/4csh6se4u5DjQqUBIiqttTsErq2hpp0PX102SbN2ZvB7evEetAnaZAcp6acNXN9TWUwq6dL8CCjV1bW1+frQC1q4Qc9CiIKsRsULMbA66qnL1+ot1+Pln3FnMt8IpDsF33oK0T91ynH+fhEm9DQ65B5c7i19q503T+jVPo+Gnip6sR9O7mLSJ1ktNQNP8BbLgGNQLlQYuu0V9vF8VDp9ZOB98+xiqIGlwESzwbsZvB2Sn0H/30OA34nIz0steJa7eLr1evAKKp68GVix6MW2THtwZ2dWbIXVPB5QjGWrl4Hhp6m3gOQK1B16bWoI+nvpUx2MUrt/Gzcmm9Qh2F4V2HDtwCW8ECGTHRzRunr5FTu3kV/TtzM7h8FU7gBn2+MTUFjrtCpnZ6FDmcC4YwzMI81ynWPUNMtk6ahRDuyhnAeHP2pc0WvkmJnvLYUWedO6Ln0f5p0SMXPV0lr5RUgpunXljOP89FRUg7kYlMZCITmchEJjKRiUxkIt+I5J1yIfdzZUXE0vpcq8yjzMo86pRL+EOnFIU2E3m5Uxa55ZHIbKecG1vq5DbizNi0k9qodC8fFsmVEaVOlkWZGBzJyvdKvpJSOZJRZnR3ZqaeiijKtOmUSvgbSgy1VRInm/xeqdMplX3ledYpa5pTclvuWBsNW3uvnHGOw8pqwcrb062SEjqipkjfK1Muc5NS2+mr1Ska5JuCTqKYtDsz3UFVyipLXaRi76VGHgPWUhzXYoirbUsZpqtJ7FzcbgkjRb2aOHxJkuoyWtSpJrU0zIRSYrcWLxnRjOeMBVgoYkuK1XhpHyyWVpMmzrSDI2k/9uLipsiUWKlSubWFHLWEb+Kwc0mSNEvKGgJrO/FNShyaVu4kO2lIhab9WlmU+jWHUuivK35eLiNTalIJSY8un4tXqQge1mtVYVpJvOPht2KzFs/4obNhLqNNdCyO2zM8MryMEmsJFXlBhseAteKSRiFdocpVV9tY2m3HbsFoVo/jDUizXXObItxGk+ZEaLVWjdjtAiw3raQlsNyq1hfcECxjOJtD3R0b6cGhUtX5Kt5sbKr5bBPtXFrZSOL+fZFnDdejWnqJ66ceXdNtN9q9atxuvNnule/F/ZyOyrTqSgIFtYvWtlvGH9Y4Xt3c3ey7JBV2xW2QAilRj6synAMkda9OOYanVSiZDcvVGL3caiduiytZrsWDEpePXRZZijeEMUYZo23eds2UhcqsJPFKqLtJDcMkTLSU1Eqii9HuiVxkooyxBTJNN8eguATWFhOrI7CY4VEzbrplIYeaVerH3kh1mEmx5KozkTSsDJiEjRqug78I0enHK77/WWiECDfwTQkeduK21yyTVuNyhB+lUHPOlUB7SYdQXC/HBWnDbYZ8zm0IfxSaxaIZaOcW40yabcDWKgxUpo24kTIjoumam+NhKa6mAMCgCZFlR8uS2zCcW2FQ/0pczTjZSb7k+pnp1hImGTdaJHHddF27mqQss2bJtaFZhsBCqxWK2GRmYx+sXHSSPoaWEBlpVo4zuSBzqsYr85mJDPQ4bhloVpcpGVq1EF8QetSuC24FlSvTce3UWGsZ4eQRk4rAMiqjzks6ESyUiRnXkLCTDV+nwUALNhM3qlUT2chsxG3X8n+xZgYqXLQMvczFfWhCKK3lWaTVMWBR8VAtyY0Ie+iwEJYpltcIniRGmTyPspi+xY1NYilm2tUFt8uGYPHHwdKZ2IoXTDueFkO1Js0yqEaj+BnXzow1HKS4gLoBVp1pBYXdcJtm6BG4KcCyBFaG9jECq0xglaQ/SWvuwRLLrlHi8wbcXwr3wap7sNxmL+4aodJqrzkEC1q/LDw5RTDObVOu1VKPUpgdAxWh2ywclZVp33VNBCfDBQhpmcDSmc6yThMjILtxuxv3tIWKbb1RgDW9D5bYB4vLvI0mrrheNNSsvBrXC2+YmTfcqoLfw4iIlutbAstqm5XgNeqjoR0DK+7P1Vut1vbMQLNaXS/3rVfDTHSIgVa6ObSQPwHWxoxbsIK33AqB5bkfCHWFp8EMI7xsykmtXiAwLzU7WpbI3SVJrdaaL1XjFO1m5JIXQPFQ5WofAtdTFwpgmWpSkuEbrrsFsFihWVyjiIVxzRKqFfcyk8W17rDvRKnkb2qrQmzGb0CxoL4K1ppEAMtXgr8v7NvtECwOzQJDOpLYEVguib3r6qfzpAmwwE4brifpXygrkK3bYF7funHVmGl3IU2qCCmaST7ULJbWko7JjT9rwa0aMHCtVkuSeDPMjgsd5lzVu4JGl7xEOjz8BgDoEoZoV3WlNG9RfRsQzqm8XTVbriB44gMtPVj7BJ+FTdCIMBu1haFVQWd3CocjxAX3xrAS+AxmGy6B506S1e68Hp4/BItL3omrC7tbyxDyhtCsRrPZg2xmmroGmzd5dxm+lEZ0CBYnsJgAWIwoMa01Vc+1GF0gSjWYs9dKMuELIUbMO8OdJWGOJ/hVaqKZFxlouDQ46hWlmzghdLfqVjNgArBU2fVY1y0zgGXYBiKJyMIjLOPImGaFqav1qxDXHxYHnSVvKAChWYg3h5jACeTWE3y+4fplBZZ/EizXtt5ZwZTLBFZJILaD7zYeLCuVhC8UutWIETsMvaHZjvtGTMcboPNNRF9zbAQWlLMjBGmlQaO3QphhKugikYXHEfyua4awJptbyXrx8lAVavE2KD2RmrxwvCAi0iwt+nFpK+6KAVhLqM8KtgrLHwPL7MZJmyRxKwOzQh8XyWQtggki+MGZIHhFnKURZPQQIoB2hs0aBytVJNBOAsvdjwg8BHwm8oqyCpYK4SFkNambOdcsAgrUIqBZGwZ2aHuIfIZgcQmEBPd1oLRtUQLIjBqnrJ8THCUrcbPwEnCHK0k1E2B0gaP9VMAMhdLKIMivC9IsCyXabbdz2PqSgS2uiizDhGXHTRtvhggjMmGztpvxDV6Oe7YIXaBZhZKh+9CQOQE65qZUhA5xl/irTJHvaH7Ei9BBMZgh6it6VhB8CcoEQTRBpqTTJO6YDK5ftOOW6CIsMAqR0HK8wYDYKiKceCYBnm8OOEuKubhfEpZr9Deu5bKUVEuWULLGHgcWvOFwODPdjhv3RBhGSwjXFHlDhJxG5D1E0SHAysDy1RhqBLDA+C5piXmBKuOyRlC6QtYhvHF56kPwChrx/U/32VAbNHFaI/DsUnAYFqEDz0A3bjscuqPIg8U8WH3PxkXoUIKLiTyiofAhhITKtMswbz5NwSXw37KwSnDHChE8GGza9WstTZrli+EZuoNewiamazHaXI5rKR+R5XFgbQw/igjxUPXC8kIjiRcQ0kOzfOkhUFsuzDBvOFfmjMASesMlzc3NRlxbFlqvxlXi3V6j+/duNfQjFfUwst6ySvtgodzN2PUWdjcS10bMNAALXg2GmA2H9gCwUEYZP8DGRT1b/lwb0RStt7AAP7HCLI1cY2GhWXONLKTQgYNRXDWVI7BQRRn+fXV32fdSiGcCK24OPyI4Tzdptuva06HNTMeDJXkm3nC1TjfuY3Ky5BpWes2yNl+gya6rrVgdIs4q5srxEuIlPynMzDTowPcfFDjyszaKZtqOZu4LmMypbCeugxmVjTAkfz9stGbeu3qwqrmHJSUvhh+DekBOdBhT4U6TptyuD9+cReE0TdJdsplqoWZA8BTsXoiseBMm7z1CFsp0gZYL0MsMsTGBdZwXHCGUZeM+IEzrM62yR1rabLjqAt2l6BQQKETOTOEiPjy56ylFZvm+KN87MJjNC7sqrh2JycqtmeI6KnqoTrhy1GquMzM86ovDATRU71eiRwQjSmhGZ8h3otNq1VPpL6Jmak0dNHr/AvxOu+hlUYEZNvIpRPqL9wXmr413CxJTs7EOSugYIUCtkN6xYIIqQB226KEZnCzGyxuE5I9VkmEqGIJm/J/keCWjTzTnHHzixWEpqUGjfo1dxX1MIoc1CEzuOQ0VmoTGcjksZr9swaNQ2GEIeuyU8DDRUYSan9KE6WQT6UEHjPYuXhHP7/fjIJGoYP+6g2X/yrHiPIiFjB3VKjJGjYrLOJrF/DrieP3jxYAq8+MaeWCj+CPRhYSi2EJZlOLjJw1ONGPX0Mn4562ES8npB4Z//MqiKY9XAoqSxVjzsVP9tU+03wyUbFjGoCVm/0rrqx35fRHhu36k7f7DqFVwhCCrR+Y2T4/XRCYykYlMZCITmcgrJQjTFfc3ZRRHkKUeCdsn8qhQ0DgIXYtpo55EgYcKVIlP3T5zjTRsbfbM7Qp72nn+d1BgdG+9HgTB22zxx7S35Z29p57of/dELr4bnLr1evDe1E+CW9eB1vsn3aJXWR68/tOpxZ8F71x/7X3JPwiCP510g15h0ercHnv4d1CpD5lVH0/AOkqUkFo/CAgkrfUHhNlEjpS3guCne4wzmOMP7550Y15xKahKcPXg9eBf9457quA7LlCo1+4yHZKG/ZVPwDpUKF5/GAQ/36MnxqBhv2ARLdWfdLNeXfl+EHyEKaFe/CU0zNCttAlYh4hiPmDAvOfh68TzU3tyMj08TLT6lQ+ypPyHIPiDnPr1O5XvEFj+iX3FRncwhTlq1cXaxdeDTyhgILC+uHo5+Iv8TpE8p95W1s6dW5uqMHakVWlPWT/1T8wu/mPgJ4eR+g6BxZXmF+ndUfRKjfW3K0cpVmbYw9nZD/2DGWzqzPrbdwfPAXxnROef0ltDzpzxL9q6e9Rjc1KT9+OEZ7E/RtFq4BPwTr3kFz9Er8orSrRZ/CwI3vFvDfmnIPjnPf1CVqVtdPHT4P2nUzbNDls8pCctNJtak5EFnX4/uH5HKvPcD368NInY1xRlEtHLxd8ihDr2GcMjRHH18M+Iw55yyiiVPuTRFXpaovLub77HOIH14Me+zJNfw+b5zygS9+3IPwv+wuQL2JBm//Db4KcfSvVUOiAjeZgWS6a/+nUQfE9ya+CB9IP/DT75UJ589IvgMrir/Z43/dXVu+r5b9iA7R7+LvhoavCg1NjjMgeeLaMPrh+00uq98wO/bP2RpH0iHJgu/pkiFvr2vK17GcJpeerlrLRYrX8S/MfeqOSxZ4uePFkqufgvwQ8OKkfyxXdfDy79jjRLC1I+jODi74L39pQ+Mgr820uxlvcyYiVD9Pf+UxZFYP3dgWDBv74bvPMhrWp8Tyr/qLvixPLBn+RhHPdNycPfBEVM/sLCMbd+R9oxzjuCZGDth4AFYKZmpQ9/h2CReoJQ/2OPixONgCUttQQ/v8si+8L8+Ra5CtoTi2nA2pWzly4iJPtq/ez1Dw8wRakPA8s/ugoX8RhY8vf+ZtKJmqGWIOUgeA1j+aLcSWuod3kxVfw98fMXe4sf+JkB0Hp8GnUUWIU8AhYugAn8Qb5YFPiioix78BvvefaOP5ldPf2ErI9exPnwl8G/StqAaNjnwTuITT+5+1nw9leYH/wbe2IC+exgIXj+9z19ouEDxko9+LW/vfwUk4pbwZMyek0bXMVfoalKCv35O3vs3eCLdXq3Ijr9bwdsl3xWsCL9cRB8yU72FjiZzeK71Os/zmdGi5xVKtywxSlEAv5J4Ej47QAcoQE7exhYBuE1TO8HA1uWFZZ/ELxGixLU6R+NaZYamVI+AguH7BNk9DhY/C0irROP4kGnXxWPMHBN2v7F3cWPyS6tn/roqNiKg0kzmzpAilcsYsS/Jn4vhHzdT9BZik/fotBkxFn4/f3LZwsBqw0+QRGPBYsO/OClxDgvJvA9XwGs9zDLePi7jz4NfvTpO+/+xt91xh8X/3z+hpfzHx3RUiXoDvXopqsiJvxkj3a9fEy0P5pyAqy3ntTOH949FixeqOjJguV3pTCJMAZxTCTzt+V/BjfX99hnwfvK9zD/8+WBfO9IsIhTxqYvn/uuIRqnqF6NgSUfzA7kN8FHt4tPt4/XrJMGCx1kmEFo35S3yNVH1KeP6U6E+knwpfJMw58utuF6TLO4LKBTyj74r+Cjg6/Qz0TwpgDrxLyh4g8vrqnB4t3vSbMwu5X5z6iXD38JP+1bOjbDOJxdab778T5ncaK+H8L6lHrrkMdH9GHTnaEcrFknJgb9+5EcOCrQ83/DJyn2EFxDLftvWayJLn4+NJv3D7cBDgf6CCwUdO3R3aAPDp6nP2WcZUdgDTzFyXFW9pkPijmaQM7rF/T+DjTyPfTk4+BPyvgX8OS/HdLwe0eB5Xv3V/jMwnVS0CUV1wVliSc2xB8FlqJHe9l/+lUHM9jmh4Mfn+zDc2jua4Uf0oi0/gijwQTxYwqLNCiLFXssF88N5e7Rw4r5yHseelqm93GEVpIm11n+44/2HiObw8GiB1bp3tzXdGOyeJeJFw0XdDc7uQielme+uDZlK+c+JXpn1FO4RdA0iGvv9//jZ0D7b7Q4huihRK/tDQIqlPLal0BELf5L8MWdPwc/evwFMYeDpbgwKqp8hUnYa29PRfRItB8kwP4/lRN84PfzwrzOn0K7MDcEe3H58P9A2eTiz4Lzwft+IbeILcjdHRc9f+3doT8LlPXve7AlS7dDguAvMn9MK48Ay5j8x6eGpn/+53vFIrWElf+FHfvKhr+dLK7duXpl/fqlS6dn18g5U4cqZ64STVw8ffpusT48ui9YDLAa7Nz0Wzgf8eQScej34E6ZL+XMLL13C0H/j6+fvvjk0hZ6fdhKqWF69sqZkVRYsU35Y9LV47T7by3gqcO46KBh9KFXVKnQXmv1yONGEqzy2t3i3WHjW58PvAPCMTP+fPapFx0l3Sugp3de0QfvD7tFo89d/fTW5cuXrpDmPbLnVkG1/jDa3z2wGNo+flBJRNxPa1PkHD8LPrmrtHhFwaJN3wf05iu6cX3p+v+libd8BKxIU2Q7CrX0gOMOQQThgZFPuTqLavwqrLLfss1CYPE/3uWs8ilNfx97RYdk7xKZ65e7noloTxXlvsxSvxH5mpYIoDR0o+OAWzlvvR688+WTi1PPL4qb8MH/ejV+VU3wcPnqzG2ET5zrn4zuZI+J0HR79BcHXvm8on9Pd++lOtn19+cS2EJEj87oXwGUJzy5jphcm917idGQtnJq9q4cvEjxWyiYNtPNluCAJbuJPCacXPnHflHg20cj37RAr9T3/W5DcXKzj2+H0PZo9oCew+WZOPmngF5poTVRfzfi7itwp+VVF+KrB78jrF7kGcHviKghVoc8pDaRMbHs4T8Gn3zJfTqBo180NhFF922+ZNbKxa8+PPkHiF9x+Tp4rVgPfRB8NAmzjpYHQXDjzBXI6fPBXw993HgijF6o8quxRxR+IPPjL/muCqd77vv5OoO/yOPf6v+dFcWEqlSmKiP5li1cfqMCsCJ6V+zwu55sY53IRCYykYlMZCITmchEJvLKyknOV46q+5tolzZaRKJIxqi5saH1MzlluTTcP1lhKe1UcXPUaiYjQakQosjuSyS5ELLIKyutEJTtSvs8D4qe1bZFxlWutVaGlmi4VZk28vEleaV0Nvoo8SUKBfM3GrWSxkoZaVSVKb9pAQ0UlJJWa0spI1XkU0jZzLfVC06XlvPh16g4g2UWJ/HcyOeYpoY2k9ngGTOhUJJPPQaElLCsyJ0U5TyTfmO2kAxnizxjkhI1jkTKLIuKB/aASEZ4C0rGYbTm+KCoSCmNwdD45LOa6VyI6LF7iNyMkkhaegTZ2Cwr9pkJlWcYIBkqHg2f9qBkFFYZIbVvCcvoWoMxlING6UwoVMUpGSUky3wDLY6GAq3iz3E7IONZObUeCpPlpXKIXlOfrS6VUo+hyMJyCaNBvVRpqRRaqU1eGpNylpVKmfEo5zItaWv3/54LZoXvv8DBsk9dqfKwVE6zx9aYs3I52/8IpGwpFf4BtyzCpdoy1F4qMvZh0PJyKQ/ztJz6JhSpkKVORxWnpY7KotH3vHhQxGgeluvb2/X0OXZP2/npWnXZ51c00Uytmhc5fxQlI27CgGAtOu3HM4Mcn81abZteifJGrbov/bDUqO3OezjD+ziZz3f7yfCPzVaRx9OYtFftlyWX0OBwJ1l4/O50t1ZdIJ3CxzpODPlM0u/4xxz1/FJtJ1ViGbV2jX+03Ua9am1LiO2iIf1qY0kZFL2U7LerN59F7VEjm3Oo0FjWbVYpO1R/M2fH5o9+TCSbiV1yv1DJGUfZqngBVjWOd00moK15jRKLMkqZVnNuQ0jDtnwyKpcUmagpUemy75YypQQnU4pESvTo/574RM4qM6jJ7YoIJGhV1a0+/kBy3cW1eqhpo27dJWXOpvHT67w0S66aKrPgYrdU8ITqJM4tMLaNi1yRZHNDaBsuU6LoIlWWa0DbqpQgdJDLelOh6V0cqVJaQdcu7We/ewawXCM8CCyXdEJtrBmBxRaSapKUhLCFdqPp/kMIsHbHwTKdWjxNuaqi0graRmn7QB4brh/XjI00PwQs5/qRyAZgMQ+WL3UcrF6RKtQsO0p6zbbjeBpt6LR6hCOBVSMLLOwQ3qHqtiKfNWumHyddI3U7rrbS+TzbiuNN84yPuxFYgH7rILDieAd6JffBypJ4qeGWoW8hZcrSwAW/uYjS6hNguTrjIH6JLrsWFS46STxTdXNCy8PAihO36Ys5ECwuNuNqNe4U2dvQaQ+Wc120LZTz7bjHMoCViGI9NvQ5s9Aw+GBUJe7FyYKR5cS1BFxrBORrx+dxfxKsfsPFHfAdn4mHYFkCqxnHywJ878GCHbF6nJSWKQdzllO2SR37vL/c2pEZWlaYoQcLMQaCkjz2Cd81W3bttOl60P1DzDCuNV2tLhB7HKpZ7R5GJZeCd+NGg1LCbscACzFEJlZdW1DWykRFhUOHYyfN2mURJXWKwna8YUSXElwqLaSo1/r3n12zXP9eNd7JcjkGFmmW227GtS6sutAsjE8zblCu95bIPN8DrDkqg7MnwUrirs8iBpJw8Yxv+47bIjXuHM5ZSanm2jlCj0PA2nK9ZVCGlT4fbNODVWhWxEzbbSBmhHWCxylYQIwQcQ6waN+GlaxUixd8XzZKYJY81CVEMs9209eDla/Ebjm0vPWoZm2nNUqUPQALLjeO54zouYaIfCa+o8Haxlcj8m41rpapIoxpl9JgwgsepllxDlPcElpsH6ZZPZhRmSP0ayf3ewOCnyGC6lxIavgDwKql5VIK1krTPPNgCXo2U5dgJ9uIvDbBoaut+4hkMoSyzxZrebBS0QT7iTGwPGe10Nx4d6BZiEiXXC23ZgWdnve5EY8Cq+YaTZJGzcUr3uesukYG2qF0lod6wzTciJOWGQfrUW/YMw20KBf1uGHeJM2qx85HBjFdF5EZxv1htIAeAax2s9fD/zjjAnxLlK/CMbpae7UVYd7ybFF8AZbJE+pKy41rFqX2Boj1AizLdZsYlTJZbgl/Y3kIlubkDb1KW1OuDUKH2OfLdnF7m2UapJK4FcZDMkqDucrBYOUCJbVzvh86cB9UASw0EmA1zIprg3IWoDCes7xXKMKFRklrEDx9LJJ11+F9qsU3BA79OQTTmTF5fbPvG9Yrh4vPAxbTLRiimC6yBQ80i8Aq1ZL2Ykb9VwIA7Na73W6DVHHcDAdgFVOmwht2k3h1aWmpB/8chlbpSKwg3urWu/Va3MBs8TCwMgHtXijiLDMzBAux5hAs0YnjMmlyx/QGYE2TGdZ3E9AJhQ7VTt3nfS93yQtVXW9paWUjds1SGPEsN9qEUpRXVhGdtdNnj7Ncv4Rp2AYc0aNmCI8fyTmEfrbwhhecz9tKP1bEOMF7sJYHYJXhIo1AnFVHzC7QhQ2EFpin7QyCxZqrgZEPAyvMzKpz9S6Fox6s4g622CWwGIEFO1ye33ZNO9Aswo6m92ELcQ2joBSzbz+/QoxKg7KEuSGcIGLQMJPzWRbShB4To4Uk3g2fg+BLRoYIldrQ+0fMEJMhseGSuid4cHO/SACP0fLOeQiWYmmbyBZXatUZgEVxFhz6BppkEC3cgz367OltcAdwHYLF929XE1gck6t23PZsJRD2dfxWMK6X98GCHYoLlM+aNIuDs1CRgIcVKFhQUIqZLr1RKtL0u+qWudSScmJvGGmy1T6FiUZHJmq4C+zZ3ldYeEPFIsQNSfsxM8QMLAPRtwGW0NOxT6AtNAXPXTMGFvSyGffCCOalxRw5PQNjIW8YWYwBXEcGkqmmXpMQx1fTyFTjVeHzXtrRRi8Ci363ErcT18qCClkJM3gDG/ZA7dKbISvX4m4ViseI4MmFdn0mzyUoncsAAAQ+SURBVMwkboHAShT8HErGj8hH8LSkQ/mk0VjMKOOGRtSVRVpsANxn1ywEx4hp4Yhc/CjBU47f+Wli0DkR9TCitBYibAlMNK5ZwG8X0RdltTV521UxRxqAlUUCsVvDCviITb+N1XBMUFbYSLPM/o7AAVjSrNbg4u4xHVYp1TuVup3AzLUHi4tG3IthhWxI8GWydwFLhUoTWCH3u48pOTeBtUxgKYWYo1o2co4CbSqTstUvhc8elAIs+HwoQVx7lLOM0jLXq44sq1sDMkopbXOMUjHdG4YOGXFUslW/V59rxAQsH4DFMoGoBFwCNqwbv9wSwWTbucD8oOVle3tIsgOweFjqw7d3oC9zsN3pbnl7uRZXO36G0gAEc/C0tAoyBGsZpcyAw+OdkiSwZlpDgS4PNAsdRSy5mdPcMO7N3btf3wWrDJKeP7VoM0NZ2I3lhpTApcV6liwS1GuRhQRbPC1BBmVJS3g2ork3wgCWDwleyrCFeAqTTPzYBJ40q2j5vwhKUl8tNd0OYmayO6G34EpoNaDw76495I3tgWZFpp7EcQdN0hdoTYMSZdfqoRXmAqIraUukI5wZgGXUthtGCsDXRoizxqRrRJUCQL+QlWFS11JZuU1hQw3eBnHYM77mWZhWv5lyHyOJhXYjL9YmpU6b/bovyoatnXY9a7ZXRTi4KH+zvYB65E67NSAcae9vUQNqvS6Noynv7HQHJ0cz/fZCr72UFYucWpR2+sths1HITmNjaAqdnbYP16Ms3Gz3PH2pes+XulDyz9Cv7GwAM7HR3gxFxhaqcB3lRnvHF7SxlIXZvJjuN4aCJgjd6C+peWpkpnFqU8zLaKXtoXojfbpXyY6DBdWJip15NjTzUAUPFteWVuZ9nJ7DxrOIElyPkhBr/xZ4K8LhNl4iFpOXUi087lDY0dIeFyE0FCfkfh0Zdi3n919la4waapbS84Nr7XxovfGEUO00RaMKUwJhQmv1PPgIwThUTdMLQsiUBApC6IuJRTi0rJCj0vmQ0oNTZWEOmOcziyhG8LSkBRsO/dML1zqKinefwdlmIVeRf92AUBQd0RkSflmLSI7tN9a0QI9LAeeg0/BGeQQwB7cFJIx5CEe2mEUhZrJK+W5YTMmUzlTk73moSIy2TXPrV6a5ItdWWAj6r5XmKsuKbeeAg+WaFhk0NVDhsOERvV2Fmqg1+UH6qvwdChmhHeFg4yG0IgO46K3OLItEZLNHklk/FVgggWw4zpjh8uLuDiefPugvykZXudrfzK0GL5AZbZz37+GBp+R0U2WA3vBsuo+iUdbwBQdQXZzF/H0OiSEYvXd1kJgdnlmwwT5gXKLoxZym2KdIR9FA/AcO4EAdMYP2BmrodRyKbor4QnxQoqSQirZf+zPoTYzSUiVQZkVbzflkz8dEJjKRiUxkIhOZyEQmMpGJTGQiE5nIRCYykYkcLv8PVXwWN13VqncAAAAASUVORK5CYII=;" vertex="1" parent="8">
                    <mxGeometry x="440" y="100" width="340" height="190.4" as="geometry"/>
                </mxCell>
            </root>
        </mxGraphModel>
    </diagram>
</mxfile>